<?xml version="1.0" standalone="no"?>
<!DOCTYPE svg PUBLIC "-//W3C//DTD SVG 20010904//EN"
 "http://www.w3.org/TR/2001/REC-SVG-20010904/DTD/svg10.dtd">
<svg version="1.0" xmlns="http://www.w3.org/2000/svg"
 width="222.000000pt" height="233.000000pt" viewBox="0 0 222.000000 233.000000"
 preserveAspectRatio="xMidYMid meet">

<g transform="translate(0.000000,233.000000) scale(0.100000,-0.100000)"
fill="#000000" stroke="none">
<path d="M950 2124 c-164 -35 -300 -95 -424 -188 -171 -129 -295 -316 -354
-534 -22 -84 -26 -118 -26 -247 0 -133 3 -161 27 -248 72 -260 219 -462 448
-612 188 -125 349 -171 564 -162 155 7 260 34 400 102 240 117 419 316 460
512 27 125 16 157 -19 61 -21 -57 -111 -198 -126 -198 -6 0 -2 13 9 29 12 16
21 35 21 43 0 8 13 68 29 134 16 65 32 153 36 196 7 78 -2 176 -15 161 -4 -4
-17 -43 -30 -87 -38 -132 -124 -303 -139 -277 -5 7 -22 -9 -46 -44 -86 -126
-256 -251 -410 -302 -67 -23 -98 -27 -195 -27 -115 -1 -211 18 -250 49 -8 7
-37 20 -65 31 -260 94 -442 429 -406 744 10 85 48 209 81 265 10 17 29 52 43
78 32 64 132 167 206 211 347 211 804 92 1014 -264 25 -41 50 -92 57 -113 6
-21 14 -36 16 -34 3 2 -3 24 -12 48 -9 24 -23 63 -31 85 -19 55 -109 167 -180
226 -62 51 -156 105 -268 152 -38 17 -76 35 -82 42 -17 17 -150 28 -235 20
-61 -7 -140 -24 -243 -56 -79 -24 -82 -24 -45 2 88 61 234 98 392 98 74 0 108
4 110 12 5 15 146 -21 228 -58 91 -42 207 -113 259 -160 59 -53 135 -154 186
-247 21 -37 39 -66 42 -64 2 3 -11 40 -31 83 -19 44 -37 91 -40 106 -6 27
-142 172 -235 252 -86 73 -234 135 -412 172 -131 27 -213 29 -309 8z"/>
</g>
</svg>
