<svg width="377" height="351" viewBox="0 0 377 351" fill="none" xmlns="http://www.w3.org/2000/svg">
<g filter="url(#filter0_i_2_91)">
<path d="M84.3956 59H80.6456L111.299 0.81818H115.39L126.725 59H122.975L112.776 5.39205H112.464L84.3956 59ZM93.3729 37.0966H121.327L120.759 40.392H92.8047L93.3729 37.0966ZM169.765 24.767L166.441 25.5625C166.157 23.9527 165.646 22.5795 164.907 21.4432C164.168 20.2879 163.146 19.4072 161.839 18.8011C160.551 18.1761 158.932 17.8636 156.981 17.8636C153.704 17.8636 150.911 18.678 148.6 20.3068C146.29 21.9356 144.926 24.0379 144.509 26.6136C144.168 28.6591 144.566 30.3447 145.702 31.6705C146.839 32.9962 148.761 34.0095 151.469 34.7102L157.947 36.3864C161.242 37.2386 163.6 38.6402 165.021 40.5909C166.46 42.5417 166.943 44.928 166.469 47.75C166.091 50.1553 165.096 52.2765 163.487 54.1136C161.896 55.9318 159.869 57.3523 157.407 58.375C154.945 59.3977 152.199 59.9091 149.168 59.9091C145.077 59.9091 141.877 58.9527 139.566 57.0398C137.255 55.108 136.015 52.3523 135.844 48.7727L139.282 48.0909C139.415 50.9129 140.343 53.0625 142.066 54.5398C143.79 55.9981 146.242 56.7273 149.424 56.7273C153.041 56.7273 156.1 55.8655 158.6 54.142C161.1 52.4186 162.568 50.2216 163.004 47.5511C163.326 45.5625 162.956 43.8958 161.896 42.5511C160.835 41.2064 159.055 40.2216 156.555 39.5966L149.935 37.892C146.488 37.0019 144.017 35.5814 142.521 33.6307C141.043 31.661 140.541 29.2557 141.015 26.4148C141.413 24.1042 142.36 22.0682 143.856 20.3068C145.371 18.5455 147.284 17.1723 149.594 16.1875C151.905 15.2027 154.452 14.7102 157.237 14.7102C160.968 14.7102 163.856 15.5909 165.901 17.3523C167.947 19.0947 169.235 21.5663 169.765 24.767ZM209.999 24.767L206.675 25.5625C206.391 23.9527 205.88 22.5795 205.141 21.4432C204.403 20.2879 203.38 19.4072 202.073 18.8011C200.785 18.1761 199.166 17.8636 197.215 17.8636C193.939 17.8636 191.145 18.678 188.835 20.3068C186.524 21.9356 185.16 24.0379 184.744 26.6136C184.403 28.6591 184.8 30.3447 185.937 31.6705C187.073 32.9962 188.996 34.0095 191.704 34.7102L198.181 36.3864C201.477 37.2386 203.835 38.6402 205.255 40.5909C206.694 42.5417 207.177 44.928 206.704 47.75C206.325 50.1553 205.331 52.2765 203.721 54.1136C202.13 55.9318 200.103 57.3523 197.641 58.375C195.179 59.3977 192.433 59.9091 189.403 59.9091C185.312 59.9091 182.111 58.9527 179.8 57.0398C177.49 55.108 176.249 52.3523 176.079 48.7727L179.516 48.0909C179.649 50.9129 180.577 53.0625 182.3 54.5398C184.024 55.9981 186.477 56.7273 189.658 56.7273C193.276 56.7273 196.335 55.8655 198.835 54.142C201.335 52.4186 202.802 50.2216 203.238 47.5511C203.56 45.5625 203.191 43.8958 202.13 42.5511C201.069 41.2064 199.289 40.2216 196.789 39.5966L190.17 37.892C186.723 37.0019 184.251 35.5814 182.755 33.6307C181.278 31.661 180.776 29.2557 181.249 26.4148C181.647 24.1042 182.594 22.0682 184.09 20.3068C185.605 18.5455 187.518 17.1723 189.829 16.1875C192.139 15.2027 194.687 14.7102 197.471 14.7102C201.202 14.7102 204.09 15.5909 206.136 17.3523C208.181 19.0947 209.469 21.5663 209.999 24.767ZM216.995 59L224.268 15.3636H227.705L220.433 59H216.995ZM227.62 7.60795C226.806 7.60795 226.124 7.33333 225.575 6.78409C225.044 6.21591 224.817 5.52462 224.893 4.71023C224.931 4.02841 225.234 3.43182 225.802 2.92045C226.37 2.40909 227.023 2.15341 227.762 2.15341C228.576 2.15341 229.249 2.4375 229.779 3.00568C230.309 3.55492 230.546 4.22727 230.489 5.02273C230.433 5.72348 230.12 6.32954 229.552 6.84091C229.003 7.35227 228.359 7.60795 227.62 7.60795ZM234.95 59L242.222 15.3636H245.603L244.467 21.9545H244.808C246.039 19.7765 247.781 18.0436 250.035 16.7557C252.308 15.4489 254.883 14.7955 257.762 14.7955C260.906 14.7955 263.321 15.553 265.006 17.0682C266.692 18.5833 267.762 20.6383 268.217 23.233H268.529C269.779 20.6572 271.635 18.6117 274.097 17.0966C276.578 15.5625 279.438 14.7955 282.677 14.7955C286.881 14.7955 289.874 16.1307 291.654 18.8011C293.453 21.4527 293.965 25.089 293.188 29.7102L288.302 59H284.836L289.722 29.7102C290.309 26.0549 289.931 23.1951 288.586 21.1307C287.241 19.0473 284.883 18.0057 281.512 18.0057C277.914 18.0057 274.94 19.1326 272.592 21.3864C270.243 23.6402 268.785 26.5095 268.217 29.9943L263.359 59H259.893L264.808 29.483C265.357 26.0739 264.987 23.3087 263.7 21.1875C262.412 19.0663 260.054 18.0057 256.626 18.0057C254.334 18.0057 252.241 18.536 250.347 19.5966C248.453 20.6572 246.881 22.1155 245.631 23.9716C244.381 25.8277 243.567 27.9583 243.188 30.3636L238.415 59H234.95ZM63.5433 156.909C59.7744 156.909 56.6494 155.924 54.1683 153.955C51.6873 151.985 49.9448 149.295 48.9411 145.886C47.9562 142.477 47.8142 138.623 48.5149 134.324C49.2157 129.987 50.6456 126.114 52.8047 122.705C54.9638 119.295 57.6248 116.616 60.7876 114.665C63.9505 112.695 67.3596 111.71 71.0149 111.71C73.799 111.71 76.2327 112.278 78.3161 113.415C80.3994 114.551 82.0187 116.133 83.174 118.159C84.3293 120.186 84.8975 122.534 84.8786 125.205H81.3558C81.299 122.174 80.3236 119.712 78.4297 117.818C76.5547 115.905 73.9789 114.949 70.7024 114.949C67.71 114.949 64.8975 115.782 62.2649 117.449C59.6513 119.097 57.4354 121.369 55.6172 124.267C53.799 127.165 52.5774 130.498 51.9524 134.267C51.3464 137.96 51.4221 141.275 52.1797 144.21C52.9562 147.127 54.3388 149.437 56.3274 151.142C58.335 152.847 60.8539 153.699 63.8842 153.699C66.0433 153.699 68.0982 153.273 70.049 152.42C71.9998 151.549 73.7138 150.337 75.1911 148.784C76.6683 147.212 77.7668 145.375 78.4865 143.273H82.0092C81.138 145.981 79.7839 148.358 77.9467 150.403C76.1286 152.449 73.9789 154.049 71.4979 155.205C69.0357 156.341 66.3842 156.909 63.5433 156.909ZM107.975 156.909C104.339 156.909 101.261 155.934 98.7422 153.983C96.2422 152.013 94.4619 149.305 93.4013 145.858C92.3407 142.411 92.1797 138.472 92.9183 134.04C93.638 129.722 95.0585 125.886 97.1797 122.534C99.3198 119.163 101.933 116.521 105.021 114.608C108.108 112.676 111.422 111.71 114.964 111.71C118.619 111.71 121.697 112.705 124.197 114.693C126.716 116.663 128.505 119.381 129.566 122.847C130.627 126.294 130.807 130.223 130.106 134.636C129.386 138.936 127.947 142.771 125.788 146.142C123.647 149.494 121.034 152.127 117.947 154.04C114.86 155.953 111.536 156.909 107.975 156.909ZM108.032 153.699C111.138 153.699 113.998 152.828 116.612 151.085C119.225 149.343 121.413 146.985 123.174 144.011C124.954 141.038 126.138 137.714 126.725 134.04C127.312 130.479 127.227 127.259 126.469 124.381C125.712 121.483 124.358 119.191 122.407 117.506C120.456 115.801 117.985 114.949 114.992 114.949C111.905 114.949 109.045 115.83 106.413 117.591C103.799 119.352 101.602 121.72 99.8217 124.693C98.0414 127.667 96.8577 130.981 96.2706 134.636C95.6645 138.178 95.7403 141.398 96.4979 144.295C97.2744 147.174 98.638 149.466 100.589 151.17C102.558 152.856 105.04 153.699 108.032 153.699ZM138.465 156L145.738 112.364H149.119L147.982 118.955H148.323C149.554 116.777 151.297 115.044 153.55 113.756C155.823 112.449 158.399 111.795 161.278 111.795C164.422 111.795 166.836 112.553 168.522 114.068C170.208 115.583 171.278 117.638 171.732 120.233H172.045C173.295 117.657 175.151 115.612 177.613 114.097C180.094 112.562 182.954 111.795 186.192 111.795C190.397 111.795 193.389 113.131 195.17 115.801C196.969 118.453 197.48 122.089 196.704 126.71L191.817 156H188.352L193.238 126.71C193.825 123.055 193.446 120.195 192.102 118.131C190.757 116.047 188.399 115.006 185.028 115.006C181.429 115.006 178.456 116.133 176.107 118.386C173.759 120.64 172.3 123.509 171.732 126.994L166.874 156H163.408L168.323 126.483C168.872 123.074 168.503 120.309 167.215 118.188C165.927 116.066 163.569 115.006 160.141 115.006C157.85 115.006 155.757 115.536 153.863 116.597C151.969 117.657 150.397 119.116 149.147 120.972C147.897 122.828 147.083 124.958 146.704 127.364L141.931 156H138.465ZM223.103 156.909C219.164 156.909 215.897 155.934 213.302 153.983C210.707 152.032 208.898 149.362 207.876 145.972C206.853 142.581 206.701 138.718 207.421 134.381C208.141 130.025 209.58 126.142 211.739 122.733C213.898 119.324 216.54 116.634 219.665 114.665C222.79 112.695 226.162 111.71 229.779 111.71C232.222 111.71 234.448 112.203 236.455 113.188C238.482 114.172 240.186 115.583 241.569 117.42C242.951 119.239 243.908 121.445 244.438 124.04C244.969 126.634 244.969 129.551 244.438 132.79L244.04 134.949H209.495L210.035 131.795H241.086C241.616 128.652 241.465 125.811 240.631 123.273C239.798 120.716 238.415 118.689 236.484 117.193C234.571 115.697 232.222 114.949 229.438 114.949C226.597 114.949 223.889 115.773 221.313 117.42C218.756 119.049 216.559 121.227 214.722 123.955C212.904 126.682 211.692 129.684 211.086 132.96L210.745 134.722C210.139 138.472 210.215 141.777 210.972 144.636C211.749 147.477 213.188 149.703 215.29 151.312C217.393 152.903 220.139 153.699 223.529 153.699C225.897 153.699 227.999 153.301 229.836 152.506C231.692 151.691 233.264 150.706 234.552 149.551C235.859 148.396 236.881 147.278 237.62 146.199L240.489 147.477C239.618 148.936 238.368 150.394 236.739 151.852C235.111 153.292 233.15 154.494 230.859 155.46C228.567 156.426 225.982 156.909 223.103 156.909ZM268.778 156.909C265.009 156.909 261.884 155.924 259.403 153.955C256.922 151.985 255.179 149.295 254.175 145.886C253.191 142.477 253.049 138.623 253.749 134.324C254.45 129.987 255.88 126.114 258.039 122.705C260.198 119.295 262.859 116.616 266.022 114.665C269.185 112.695 272.594 111.71 276.249 111.71C279.033 111.71 281.467 112.278 283.55 113.415C285.634 114.551 287.253 116.133 288.408 118.159C289.564 120.186 290.132 122.534 290.113 125.205H286.59C286.533 122.174 285.558 119.712 283.664 117.818C281.789 115.905 279.213 114.949 275.937 114.949C272.944 114.949 270.132 115.782 267.499 117.449C264.886 119.097 262.67 121.369 260.852 124.267C259.033 127.165 257.812 130.498 257.187 134.267C256.581 137.96 256.656 141.275 257.414 144.21C258.191 147.127 259.573 149.437 261.562 151.142C263.569 152.847 266.088 153.699 269.119 153.699C271.278 153.699 273.333 153.273 275.283 152.42C277.234 151.549 278.948 150.337 280.425 148.784C281.903 147.212 283.001 145.375 283.721 143.273H287.244C286.372 145.981 285.018 148.358 283.181 150.403C281.363 152.449 279.213 154.049 276.732 155.205C274.27 156.341 271.619 156.909 268.778 156.909ZM267.158 155.773H270.227L269.403 158.045C271.164 158.33 272.49 159.021 273.38 160.119C274.27 161.237 274.545 162.752 274.204 164.665C273.844 166.805 272.793 168.453 271.05 169.608C269.327 170.782 266.978 171.398 264.005 171.455L264.346 168.756C266.372 168.718 267.925 168.377 269.005 167.733C270.103 167.108 270.766 166.114 270.994 164.75C271.221 163.235 270.88 162.117 269.971 161.398C269.081 160.678 267.575 160.309 265.454 160.29L267.158 155.773ZM308.352 156.938C305.833 156.938 303.607 156.436 301.675 155.432C299.763 154.428 298.333 152.96 297.386 151.028C296.439 149.097 296.183 146.748 296.619 143.983C296.941 142.165 297.537 140.564 298.408 139.182C299.28 137.799 300.473 136.606 301.988 135.602C303.503 134.598 305.359 133.775 307.556 133.131C309.772 132.468 312.357 131.956 315.312 131.597C317.585 131.331 319.611 131.066 321.391 130.801C323.172 130.536 324.611 130.129 325.71 129.58C326.808 129.03 327.452 128.206 327.641 127.108L327.925 125.29C328.456 122.127 327.916 119.608 326.306 117.733C324.696 115.839 322.13 114.892 318.607 114.892C315.501 114.892 312.717 115.593 310.255 116.994C307.793 118.377 305.956 120.129 304.744 122.25L301.732 121.028C302.906 118.945 304.393 117.212 306.192 115.83C308.011 114.447 309.999 113.415 312.158 112.733C314.336 112.051 316.552 111.71 318.806 111.71C320.757 111.71 322.575 111.985 324.261 112.534C325.946 113.083 327.386 113.917 328.579 115.034C329.791 116.152 330.653 117.581 331.164 119.324C331.694 121.047 331.751 123.112 331.335 125.517L326.278 156H322.812L324.147 148.131H323.891C322.869 149.759 321.581 151.246 320.028 152.591C318.494 153.917 316.742 154.977 314.772 155.773C312.802 156.549 310.662 156.938 308.352 156.938ZM309.005 153.727C311.732 153.727 314.27 153.064 316.619 151.739C318.986 150.394 320.975 148.557 322.585 146.227C324.213 143.898 325.264 141.256 325.738 138.301L326.846 131.881C326.335 132.259 325.643 132.6 324.772 132.903C323.901 133.187 322.925 133.443 321.846 133.67C320.785 133.879 319.677 134.068 318.522 134.239C317.386 134.39 316.278 134.532 315.198 134.665C311.96 135.044 309.28 135.631 307.158 136.426C305.037 137.203 303.399 138.225 302.244 139.494C301.107 140.763 300.378 142.297 300.056 144.097C299.583 147.07 300.189 149.419 301.874 151.142C303.579 152.866 305.956 153.727 309.005 153.727ZM46.3878 237.517L51.0753 209.364H54.5412L47.2685 253H43.8026L44.9957 245.926H44.6832C43.3196 248.18 41.3688 250.017 38.831 251.438C36.2931 252.858 33.4711 253.568 30.3651 253.568C27.5052 253.568 25.081 252.943 23.0923 251.693C21.1037 250.443 19.6738 248.672 18.8026 246.381C17.9503 244.07 17.7893 241.324 18.3196 238.142L23.1207 209.364H26.5866L21.8139 238C21.2268 241.636 21.8518 244.581 23.6889 246.835C25.526 249.07 28.1965 250.188 31.7003 250.188C33.973 250.188 36.1416 249.676 38.206 248.653C40.2893 247.631 42.0601 246.172 43.5185 244.278C44.9957 242.366 45.9522 240.112 46.3878 237.517ZM61.6293 253L68.902 209.364H72.2827L71.1463 215.955H71.4872C72.7183 213.777 74.4607 212.044 76.7145 210.756C78.9872 209.449 81.563 208.795 84.4418 208.795C87.5857 208.795 90.0005 209.553 91.6861 211.068C93.3717 212.583 94.4418 214.638 94.8963 217.233H95.2088C96.4588 214.657 98.3149 212.612 100.777 211.097C103.258 209.562 106.118 208.795 109.357 208.795C113.561 208.795 116.554 210.131 118.334 212.801C120.133 215.453 120.644 219.089 119.868 223.71L114.982 253H111.516L116.402 223.71C116.989 220.055 116.61 217.195 115.266 215.131C113.921 213.047 111.563 212.006 108.192 212.006C104.593 212.006 101.62 213.133 99.2713 215.386C96.9228 217.64 95.4645 220.509 94.8963 223.994L90.0384 253H86.5724L91.4872 223.483C92.0365 220.074 91.6671 217.309 90.3793 215.188C89.0914 213.066 86.7334 212.006 83.3054 212.006C81.0137 212.006 78.9209 212.536 77.027 213.597C75.133 214.657 73.5611 216.116 72.3111 217.972C71.0611 219.828 70.2467 221.958 69.8679 224.364L65.0952 253H61.6293ZM140.812 253.938C138.294 253.938 136.068 253.436 134.136 252.432C132.223 251.428 130.794 249.96 129.847 248.028C128.9 246.097 128.644 243.748 129.08 240.983C129.402 239.165 129.998 237.564 130.869 236.182C131.741 234.799 132.934 233.606 134.449 232.602C135.964 231.598 137.82 230.775 140.017 230.131C142.233 229.468 144.818 228.956 147.773 228.597C150.045 228.331 152.072 228.066 153.852 227.801C155.633 227.536 157.072 227.129 158.17 226.58C159.269 226.03 159.913 225.206 160.102 224.108L160.386 222.29C160.917 219.127 160.377 216.608 158.767 214.733C157.157 212.839 154.591 211.892 151.068 211.892C147.962 211.892 145.178 212.593 142.716 213.994C140.254 215.377 138.417 217.129 137.205 219.25L134.193 218.028C135.367 215.945 136.854 214.212 138.653 212.83C140.472 211.447 142.46 210.415 144.619 209.733C146.797 209.051 149.013 208.71 151.267 208.71C153.218 208.71 155.036 208.985 156.722 209.534C158.407 210.083 159.847 210.917 161.04 212.034C162.252 213.152 163.114 214.581 163.625 216.324C164.155 218.047 164.212 220.112 163.795 222.517L158.739 253H155.273L156.608 245.131H156.352C155.33 246.759 154.042 248.246 152.489 249.591C150.955 250.917 149.203 251.977 147.233 252.773C145.263 253.549 143.123 253.938 140.812 253.938ZM141.466 250.727C144.193 250.727 146.731 250.064 149.08 248.739C151.447 247.394 153.436 245.557 155.045 243.227C156.674 240.898 157.725 238.256 158.199 235.301L159.307 228.881C158.795 229.259 158.104 229.6 157.233 229.903C156.362 230.187 155.386 230.443 154.307 230.67C153.246 230.879 152.138 231.068 150.983 231.239C149.847 231.39 148.739 231.532 147.659 231.665C144.42 232.044 141.741 232.631 139.619 233.426C137.498 234.203 135.86 235.225 134.705 236.494C133.568 237.763 132.839 239.297 132.517 241.097C132.044 244.07 132.65 246.419 134.335 248.142C136.04 249.866 138.417 250.727 141.466 250.727ZM203.923 224.705L199.236 253H195.77L203.043 209.364H206.423L205.287 216.267H205.628C206.991 214.013 208.923 212.205 211.423 210.841C213.923 209.477 216.726 208.795 219.832 208.795C222.749 208.795 225.221 209.42 227.247 210.67C229.274 211.92 230.723 213.701 231.594 216.011C232.465 218.303 232.635 221.04 232.105 224.222L227.304 253H223.838L228.611 224.364C229.217 220.652 228.63 217.669 226.849 215.415C225.088 213.142 222.399 212.006 218.781 212.006C216.338 212.006 214.065 212.536 211.963 213.597C209.88 214.657 208.128 216.144 206.707 218.057C205.287 219.951 204.359 222.167 203.923 224.705ZM258.014 253.909C254.378 253.909 251.3 252.934 248.781 250.983C246.281 249.013 244.501 246.305 243.44 242.858C242.38 239.411 242.219 235.472 242.957 231.04C243.677 226.722 245.098 222.886 247.219 219.534C249.359 216.163 251.973 213.521 255.06 211.608C258.147 209.676 261.461 208.71 265.003 208.71C268.658 208.71 271.736 209.705 274.236 211.693C276.755 213.663 278.545 216.381 279.605 219.847C280.666 223.294 280.846 227.223 280.145 231.636C279.425 235.936 277.986 239.771 275.827 243.142C273.687 246.494 271.073 249.127 267.986 251.04C264.899 252.953 261.575 253.909 258.014 253.909ZM258.071 250.699C261.177 250.699 264.037 249.828 266.651 248.085C269.264 246.343 271.452 243.985 273.213 241.011C274.993 238.038 276.177 234.714 276.764 231.04C277.351 227.479 277.266 224.259 276.509 221.381C275.751 218.483 274.397 216.191 272.446 214.506C270.495 212.801 268.024 211.949 265.031 211.949C261.944 211.949 259.084 212.83 256.452 214.591C253.838 216.352 251.641 218.72 249.861 221.693C248.08 224.667 246.897 227.981 246.31 231.636C245.704 235.178 245.779 238.398 246.537 241.295C247.313 244.174 248.677 246.466 250.628 248.17C252.598 249.856 255.079 250.699 258.071 250.699ZM326.118 209.364L303.078 253H299.158L290.663 209.364H294.214L301.544 248.54H301.857L322.226 209.364H326.118ZM339.797 253.938C337.278 253.938 335.053 253.436 333.121 252.432C331.208 251.428 329.778 249.96 328.831 248.028C327.884 246.097 327.628 243.748 328.064 240.983C328.386 239.165 328.982 237.564 329.854 236.182C330.725 234.799 331.918 233.606 333.433 232.602C334.948 231.598 336.804 230.775 339.001 230.131C341.217 229.468 343.803 228.956 346.757 228.597C349.03 228.331 351.056 228.066 352.837 227.801C354.617 227.536 356.056 227.129 357.155 226.58C358.253 226.03 358.897 225.206 359.087 224.108L359.371 222.29C359.901 219.127 359.361 216.608 357.751 214.733C356.142 212.839 353.575 211.892 350.053 211.892C346.946 211.892 344.162 212.593 341.7 213.994C339.238 215.377 337.401 217.129 336.189 219.25L333.178 218.028C334.352 215.945 335.839 214.212 337.638 212.83C339.456 211.447 341.445 210.415 343.604 209.733C345.782 209.051 347.998 208.71 350.251 208.71C352.202 208.71 354.02 208.985 355.706 209.534C357.392 210.083 358.831 210.917 360.024 212.034C361.236 213.152 362.098 214.581 362.609 216.324C363.14 218.047 363.196 220.112 362.78 222.517L357.723 253H354.257L355.592 245.131H355.337C354.314 246.759 353.026 248.246 351.473 249.591C349.939 250.917 348.187 251.977 346.217 252.773C344.248 253.549 342.107 253.938 339.797 253.938ZM340.45 250.727C343.178 250.727 345.715 250.064 348.064 248.739C350.431 247.394 352.42 245.557 354.03 243.227C355.659 240.898 356.71 238.256 357.183 235.301L358.291 228.881C357.78 229.259 357.089 229.6 356.217 229.903C355.346 230.187 354.371 230.443 353.291 230.67C352.231 230.879 351.123 231.068 349.967 231.239C348.831 231.39 347.723 231.532 346.643 231.665C343.405 232.044 340.725 232.631 338.604 233.426C336.482 234.203 334.844 235.225 333.689 236.494C332.553 237.763 331.823 239.297 331.501 241.097C331.028 244.07 331.634 246.419 333.32 248.142C335.024 249.866 337.401 250.727 340.45 250.727Z" fill="white"/>
<path d="M0.357955 350L10.017 291.818H22.3182L18.3409 315.824H43.3125L47.2898 291.818H59.5625L49.9034 350H37.6307L41.608 325.966H16.6364L12.6591 350H0.357955ZM82.0057 291.818L72.3466 350H60.0455L69.7045 291.818H82.0057ZM120.848 308.722C120.943 306.354 120.251 304.527 118.774 303.239C117.316 301.951 115.109 301.307 112.155 301.307C110.147 301.307 108.405 301.591 106.928 302.159C105.45 302.708 104.267 303.475 103.376 304.46C102.505 305.426 101.965 306.544 101.757 307.812C101.549 308.854 101.615 309.763 101.956 310.54C102.316 311.316 102.875 311.989 103.632 312.557C104.409 313.106 105.327 313.589 106.388 314.006C107.448 314.403 108.575 314.744 109.768 315.028L114.768 316.278C117.212 316.847 119.409 317.604 121.359 318.551C123.329 319.498 124.977 320.663 126.303 322.045C127.647 323.428 128.594 325.057 129.143 326.932C129.693 328.807 129.768 330.956 129.371 333.381C128.765 336.941 127.354 340.028 125.138 342.642C122.922 345.237 120.015 347.254 116.416 348.693C112.818 350.114 108.651 350.824 103.916 350.824C99.2192 350.824 95.2514 350.104 92.0128 348.665C88.7741 347.225 86.4162 345.095 84.9389 342.273C83.4806 339.432 83.045 335.919 83.6321 331.733H95.5355C95.3272 333.684 95.6113 335.312 96.3878 336.619C97.1832 337.907 98.367 338.883 99.9389 339.545C101.511 340.189 103.357 340.511 105.479 340.511C107.581 340.511 109.446 340.208 111.075 339.602C112.723 338.996 114.058 338.153 115.081 337.074C116.104 335.994 116.729 334.754 116.956 333.352C117.183 332.045 116.984 330.947 116.359 330.057C115.734 329.167 114.731 328.409 113.348 327.784C111.984 327.14 110.289 326.572 108.263 326.08L102.183 324.489C97.4863 323.295 93.9351 321.43 91.5298 318.892C89.1245 316.354 88.2628 312.936 88.9446 308.636C89.5507 305.114 91.0185 302.036 93.348 299.403C95.6965 296.752 98.651 294.697 102.212 293.239C105.791 291.761 109.702 291.023 113.945 291.023C118.263 291.023 121.909 291.771 124.882 293.267C127.856 294.744 130.024 296.809 131.388 299.46C132.751 302.112 133.168 305.199 132.638 308.722H120.848ZM140.628 301.96L142.332 291.818H190.116L188.412 301.96H170.599L162.645 350H150.486L158.44 301.96H140.628ZM243.852 321.705C242.792 327.917 240.737 333.191 237.688 337.528C234.657 341.866 230.955 345.161 226.58 347.415C222.223 349.669 217.527 350.795 212.489 350.795C207.205 350.795 202.65 349.593 198.824 347.188C195.017 344.782 192.261 341.307 190.557 336.761C188.852 332.197 188.53 326.695 189.591 320.256C190.614 314.025 192.65 308.741 195.699 304.403C198.748 300.047 202.47 296.733 206.864 294.46C211.258 292.169 215.983 291.023 221.04 291.023C226.286 291.023 230.812 292.235 234.619 294.659C238.445 297.083 241.201 300.587 242.886 305.17C244.591 309.735 244.913 315.246 243.852 321.705ZM231.608 320.256C232.271 316.259 232.242 312.907 231.523 310.199C230.822 307.472 229.534 305.407 227.659 304.006C225.784 302.604 223.417 301.903 220.557 301.903C217.451 301.903 214.6 302.68 212.006 304.233C209.43 305.786 207.252 308.04 205.472 310.994C203.71 313.93 202.489 317.5 201.807 321.705C201.125 325.72 201.144 329.072 201.864 331.761C202.602 334.451 203.919 336.487 205.812 337.869C207.725 339.233 210.102 339.915 212.943 339.915C216.03 339.915 218.852 339.157 221.409 337.642C223.985 336.108 226.153 333.883 227.915 330.966C229.676 328.03 230.907 324.46 231.608 320.256ZM218.085 286.193L226.295 273.267H237.489L226.665 286.193H218.085ZM248.249 350L257.908 291.818H280.862C285.256 291.818 288.874 292.595 291.714 294.148C294.574 295.701 296.582 297.907 297.737 300.767C298.911 303.608 299.186 306.96 298.561 310.824C297.917 314.687 296.525 318.002 294.385 320.767C292.264 323.532 289.499 325.663 286.089 327.159C282.699 328.636 278.769 329.375 274.3 329.375H258.93L260.635 319.489H273.987C276.336 319.489 278.343 319.167 280.01 318.523C281.677 317.879 282.993 316.913 283.959 315.625C284.944 314.337 285.588 312.737 285.891 310.824C286.213 308.873 286.099 307.244 285.55 305.938C285 304.612 284.006 303.608 282.567 302.926C281.127 302.225 279.233 301.875 276.885 301.875H268.589L260.55 350H248.249ZM284.044 323.523L294.129 350H280.55L270.777 323.523H284.044ZM323.178 291.818L313.518 350H301.217L310.876 291.818H323.178ZM333.668 350H320.486L350.23 291.818H366.082L376.48 350H363.298L356.224 305.114H355.77L333.668 350ZM336.679 327.131H367.815L366.168 336.733H335.031L336.679 327.131Z" fill="#3C5098"/>
</g>
<defs>
<filter id="filter0_i_2_91" x="0.357971" y="0.818176" width="376.122" height="354.006" filterUnits="userSpaceOnUse" color-interpolation-filters="sRGB">
<feFlood flood-opacity="0" result="BackgroundImageFix"/>
<feBlend mode="normal" in="SourceGraphic" in2="BackgroundImageFix" result="shape"/>
<feColorMatrix in="SourceAlpha" type="matrix" values="0 0 0 0 0 0 0 0 0 0 0 0 0 0 0 0 0 0 127 0" result="hardAlpha"/>
<feOffset dy="4"/>
<feGaussianBlur stdDeviation="2"/>
<feComposite in2="hardAlpha" operator="arithmetic" k2="-1" k3="1"/>
<feColorMatrix type="matrix" values="0 0 0 0 0 0 0 0 0 0 0 0 0 0 0 0 0 0 0.25 0"/>
<feBlend mode="normal" in2="shape" result="effect1_innerShadow_2_91"/>
</filter>
</defs>
</svg>
